<?xml version="1.0" encoding="UTF-8" standalone="no"?>
<svg
   xmlns:dc="http://purl.org/dc/elements/1.1/"
   xmlns:cc="http://creativecommons.org/ns#"
   xmlns:rdf="http://www.w3.org/1999/02/22-rdf-syntax-ns#"
   xmlns:svg="http://www.w3.org/2000/svg"
   xmlns="http://www.w3.org/2000/svg"
   xmlns:sodipodi="http://sodipodi.sourceforge.net/DTD/sodipodi-0.dtd"
   xmlns:inkscape="http://www.inkscape.org/namespaces/inkscape"
   version="1.1"
   id="svg10"
   xml:space="preserve"
   width="638.08777"
   height="206.30591"
   viewBox="0 0 638.08777 206.30589"
   sodipodi:docname="Logo-EN.svg"
   inkscape:version="1.0 (4035a4f, 2020-05-01)"><metadata
     id="metadata16"><rdf:RDF><cc:Work
         rdf:about=""><dc:format>image/svg+xml</dc:format><dc:type
           rdf:resource="http://purl.org/dc/dcmitype/StillImage" /><dc:title /></cc:Work></rdf:RDF></metadata><defs
     id="defs14"><clipPath
       clipPathUnits="userSpaceOnUse"
       id="clipPath28"><path
         d="M 970.92,789.746 H 74.581 V 508.359 H 970.92 Z"
         id="path26" /></clipPath><clipPath
       clipPathUnits="userSpaceOnUse"
       id="clipPath34"><path
         d="m 67.708,615.952 h 527.93 V 404.725 H 67.708 Z"
         clip-rule="evenodd"
         id="path32" /></clipPath><clipPath
       clipPathUnits="userSpaceOnUse"
       id="clipPath40"><path
         d="M 0.362,841.945 H 595.638 V 0.055 H 0.362 Z"
         id="path38" /></clipPath><clipPath
       clipPathUnits="userSpaceOnUse"
       id="clipPath46"><path
         d="M 0.059998,842.04 H 596.1 V 0 H 0.059998 Z"
         id="path44" /></clipPath><clipPath
       clipPathUnits="userSpaceOnUse"
       id="clipPath62"><path
         d="M 295.223,575.356 H 689.062 V 508.359 H 295.223 Z"
         id="path60" /></clipPath><clipPath
       clipPathUnits="userSpaceOnUse"
       id="clipPath68"><path
         d="M 970.92,789.746 H 74.581 V 508.359 H 970.92 Z"
         id="path66" /></clipPath><clipPath
       clipPathUnits="userSpaceOnUse"
       id="clipPath74"><path
         d="m 67.708,615.952 h 527.93 V 404.725 H 67.708 Z"
         clip-rule="evenodd"
         id="path72" /></clipPath><clipPath
       clipPathUnits="userSpaceOnUse"
       id="clipPath80"><path
         d="M 0.362,841.945 H 595.638 V 0.055 H 0.362 Z"
         id="path78" /></clipPath><clipPath
       clipPathUnits="userSpaceOnUse"
       id="clipPath86"><path
         d="M 0.059998,842.04 H 596.1 V 0 H 0.059998 Z"
         id="path84" /></clipPath><clipPath
       clipPathUnits="userSpaceOnUse"
       id="clipPath104"><path
         d="M 970.92,789.746 H 74.581 V 508.359 H 970.92 Z"
         id="path102" /></clipPath><clipPath
       clipPathUnits="userSpaceOnUse"
       id="clipPath110"><path
         d="m 67.708,615.952 h 527.93 V 404.725 H 67.708 Z"
         clip-rule="evenodd"
         id="path108" /></clipPath><clipPath
       clipPathUnits="userSpaceOnUse"
       id="clipPath116"><path
         d="M 0.362,841.945 H 595.638 V 0.055 H 0.362 Z"
         id="path114" /></clipPath><clipPath
       clipPathUnits="userSpaceOnUse"
       id="clipPath122"><path
         d="M 0.059998,842.04 H 596.1 V 0 H 0.059998 Z"
         id="path120" /></clipPath><clipPath
       clipPathUnits="userSpaceOnUse"
       id="clipPath262"><path
         d="M 0.362,841.945 H 595.638 V 0.055 H 0.362 Z"
         id="path260" /></clipPath><clipPath
       clipPathUnits="userSpaceOnUse"
       id="clipPath268"><path
         d="M 0.059998,842.04 H 596.1 V 0 H 0.059998 Z"
         id="path266" /></clipPath><inkscape:perspective
       id="perspective2410"
       inkscape:persp3d-origin="372.04724 : -565.57339 : 1"
       inkscape:vp_z="744.09448 : -390.17969 : 1"
       inkscape:vp_y="0 : 999.99995 : 0"
       inkscape:vp_x="0 : -390.17969 : 1"
       sodipodi:type="inkscape:persp3d" /><clipPath
       id="clipPath2418"
       clipPathUnits="userSpaceOnUse"><path
         id="path2420"
         d="M 0,841.89 H 595.276 V 0 H 0 Z" /></clipPath><clipPath
       id="clipPath28-9"
       clipPathUnits="userSpaceOnUse"><path
         id="path26-8"
         d="M 970.92,789.746 H 74.581 V 508.359 H 970.92 Z" /></clipPath><clipPath
       id="clipPath34-6"
       clipPathUnits="userSpaceOnUse"><path
         id="path32-6"
         clip-rule="evenodd"
         d="m 67.708,615.952 h 527.93 V 404.725 H 67.708 Z" /></clipPath><clipPath
       id="clipPath40-0"
       clipPathUnits="userSpaceOnUse"><path
         id="path38-4"
         d="M 0.362,841.945 H 595.638 V 0.055 H 0.362 Z" /></clipPath><clipPath
       id="clipPath46-6"
       clipPathUnits="userSpaceOnUse"><path
         id="path44-1"
         d="M 0.059998,842.04 H 596.1 V 0 H 0.059998 Z" /></clipPath><clipPath
       id="clipPath62-3"
       clipPathUnits="userSpaceOnUse"><path
         id="path60-2"
         d="M 295.223,575.356 H 689.062 V 508.359 H 295.223 Z" /></clipPath><clipPath
       id="clipPath68-3"
       clipPathUnits="userSpaceOnUse"><path
         id="path66-4"
         d="M 970.92,789.746 H 74.581 V 508.359 H 970.92 Z" /></clipPath><clipPath
       id="clipPath74-9"
       clipPathUnits="userSpaceOnUse"><path
         id="path72-0"
         clip-rule="evenodd"
         d="m 67.708,615.952 h 527.93 V 404.725 H 67.708 Z" /></clipPath><clipPath
       id="clipPath80-8"
       clipPathUnits="userSpaceOnUse"><path
         id="path78-3"
         d="M 0.362,841.945 H 595.638 V 0.055 H 0.362 Z" /></clipPath><clipPath
       id="clipPath86-4"
       clipPathUnits="userSpaceOnUse"><path
         id="path84-6"
         d="M 0.059998,842.04 H 596.1 V 0 H 0.059998 Z" /></clipPath><clipPath
       id="clipPath104-7"
       clipPathUnits="userSpaceOnUse"><path
         id="path102-8"
         d="M 970.92,789.746 H 74.581 V 508.359 H 970.92 Z" /></clipPath><clipPath
       id="clipPath110-8"
       clipPathUnits="userSpaceOnUse"><path
         id="path108-8"
         clip-rule="evenodd"
         d="m 67.708,615.952 h 527.93 V 404.725 H 67.708 Z" /></clipPath><clipPath
       id="clipPath116-3"
       clipPathUnits="userSpaceOnUse"><path
         id="path114-0"
         d="M 0.362,841.945 H 595.638 V 0.055 H 0.362 Z" /></clipPath><clipPath
       id="clipPath122-5"
       clipPathUnits="userSpaceOnUse"><path
         id="path120-9"
         d="M 0.059998,842.04 H 596.1 V 0 H 0.059998 Z" /></clipPath><clipPath
       id="clipPath262-0"
       clipPathUnits="userSpaceOnUse"><path
         id="path260-8"
         d="M 0.362,841.945 H 595.638 V 0.055 H 0.362 Z" /></clipPath><clipPath
       id="clipPath268-0"
       clipPathUnits="userSpaceOnUse"><path
         id="path266-6"
         d="M 0.059998,842.04 H 596.1 V 0 H 0.059998 Z" /></clipPath><inkscape:perspective
       sodipodi:type="inkscape:persp3d"
       inkscape:vp_x="0 : -390.17969 : 1"
       inkscape:vp_y="0 : 999.99995 : 0"
       inkscape:vp_z="744.09448 : -390.17969 : 1"
       inkscape:persp3d-origin="372.04724 : -565.57339 : 1"
       id="perspective2410-8" /><clipPath
       clipPathUnits="userSpaceOnUse"
       id="clipPath2418-7"><path
         d="M 0,841.89 H 595.276 V 0 H 0 Z"
         id="path2420-6" /></clipPath><clipPath
       id="clipPath28-2"
       clipPathUnits="userSpaceOnUse"><path
         id="path26-2"
         d="M 970.92,789.746 H 74.581 V 508.359 H 970.92 Z" /></clipPath><clipPath
       id="clipPath34-4"
       clipPathUnits="userSpaceOnUse"><path
         id="path32-4"
         clip-rule="evenodd"
         d="m 67.708,615.952 h 527.93 V 404.725 H 67.708 Z" /></clipPath><clipPath
       id="clipPath40-7"
       clipPathUnits="userSpaceOnUse"><path
         id="path38-3"
         d="M 0.362,841.945 H 595.638 V 0.055 H 0.362 Z" /></clipPath><clipPath
       id="clipPath46-4"
       clipPathUnits="userSpaceOnUse"><path
         id="path44-19"
         d="M 0.059998,842.04 H 596.1 V 0 H 0.059998 Z" /></clipPath><clipPath
       id="clipPath62-4"
       clipPathUnits="userSpaceOnUse"><path
         id="path60-5"
         d="M 295.223,575.356 H 689.062 V 508.359 H 295.223 Z" /></clipPath><clipPath
       id="clipPath68-4"
       clipPathUnits="userSpaceOnUse"><path
         id="path66-9"
         d="M 970.92,789.746 H 74.581 V 508.359 H 970.92 Z" /></clipPath><clipPath
       id="clipPath74-1"
       clipPathUnits="userSpaceOnUse"><path
         id="path72-4"
         clip-rule="evenodd"
         d="m 67.708,615.952 h 527.93 V 404.725 H 67.708 Z" /></clipPath><clipPath
       id="clipPath80-6"
       clipPathUnits="userSpaceOnUse"><path
         id="path78-4"
         d="M 0.362,841.945 H 595.638 V 0.055 H 0.362 Z" /></clipPath><clipPath
       id="clipPath86-41"
       clipPathUnits="userSpaceOnUse"><path
         id="path84-3"
         d="M 0.059998,842.04 H 596.1 V 0 H 0.059998 Z" /></clipPath><clipPath
       id="clipPath104-78"
       clipPathUnits="userSpaceOnUse"><path
         id="path102-80"
         d="M 970.92,789.746 H 74.581 V 508.359 H 970.92 Z" /></clipPath><clipPath
       id="clipPath110-3"
       clipPathUnits="userSpaceOnUse"><path
         id="path108-0"
         clip-rule="evenodd"
         d="m 67.708,615.952 h 527.93 V 404.725 H 67.708 Z" /></clipPath><clipPath
       id="clipPath116-2"
       clipPathUnits="userSpaceOnUse"><path
         id="path114-4"
         d="M 0.362,841.945 H 595.638 V 0.055 H 0.362 Z" /></clipPath><clipPath
       id="clipPath122-6"
       clipPathUnits="userSpaceOnUse"><path
         id="path120-1"
         d="M 0.059998,842.04 H 596.1 V 0 H 0.059998 Z" /></clipPath><clipPath
       id="clipPath262-1"
       clipPathUnits="userSpaceOnUse"><path
         id="path260-7"
         d="M 0.362,841.945 H 595.638 V 0.055 H 0.362 Z" /></clipPath><clipPath
       id="clipPath268-1"
       clipPathUnits="userSpaceOnUse"><path
         id="path266-7"
         d="M 0.059998,842.04 H 596.1 V 0 H 0.059998 Z" /></clipPath><inkscape:perspective
       sodipodi:type="inkscape:persp3d"
       inkscape:vp_x="0 : -390.17969 : 1"
       inkscape:vp_y="0 : 999.99995 : 0"
       inkscape:vp_z="744.09448 : -390.17969 : 1"
       inkscape:persp3d-origin="372.04724 : -565.57339 : 1"
       id="perspective2410-1" /><clipPath
       clipPathUnits="userSpaceOnUse"
       id="clipPath2418-6"><path
         d="M 0,841.89 H 595.276 V 0 H 0 Z"
         id="path2420-5" /></clipPath></defs><sodipodi:namedview
     fit-margin-bottom="0"
     fit-margin-right="0"
     fit-margin-left="0"
     fit-margin-top="0"
     inkscape:document-rotation="0"
     pagecolor="#ffffff"
     bordercolor="#666666"
     borderopacity="1"
     objecttolerance="10"
     gridtolerance="10"
     guidetolerance="10"
     inkscape:pageopacity="0"
     inkscape:pageshadow="2"
     inkscape:window-width="1440"
     inkscape:window-height="797"
     id="namedview12"
     showgrid="false"
     inkscape:zoom="0.34301985"
     inkscape:cx="160.47954"
     inkscape:cy="-241.1871"
     inkscape:window-x="0"
     inkscape:window-y="25"
     inkscape:window-maximized="0"
     inkscape:current-layer="g18"
     showguides="true"
     inkscape:guide-bbox="true" /><g
     id="g18"
     inkscape:groupmode="layer"
     inkscape:label="CI-Handbuch2"
     transform="matrix(1.3333333,0,0,-1.3333333,-18.900735,869.74534)"><g
       id="g1262"><g
         transform="rotate(-90,159.73516,592.24942)"
         id="g1363"><g
           id="g1361"><g
             id="g1341"
             transform="translate(1.8375278,-7.4999981)"><rect
               ry="3.75"
               rx="3.75"
               transform="scale(1,-1)"
               y="-608.91925"
               x="135.15286"
               height="33.229439"
               width="6.1711817"
               id="rect1325"
               style="fill:#004990;fill-opacity:1;stroke:none;stroke-width:0.8625;stroke-linecap:round;stroke-linejoin:bevel;stroke-miterlimit:10" /><rect
               style="fill:#004990;fill-opacity:1;stroke:none;stroke-width:0.8625;stroke-linecap:round;stroke-linejoin:bevel;stroke-miterlimit:10"
               id="rect1327"
               width="6.1711817"
               height="33.229439"
               x="149.93857"
               y="-608.91925"
               transform="scale(1,-1)"
               rx="3.75"
               ry="3.75" /><rect
               ry="3.75"
               rx="3.75"
               transform="scale(1,-1)"
               y="-608.91925"
               x="164.72429"
               height="33.229439"
               width="6.1711817"
               id="rect1329"
               style="fill:#004990;fill-opacity:1;stroke:none;stroke-width:0.8625;stroke-linecap:round;stroke-linejoin:bevel;stroke-miterlimit:10" /><rect
               style="fill:#004990;fill-opacity:1;stroke:none;stroke-width:0.8625;stroke-linecap:round;stroke-linejoin:bevel;stroke-miterlimit:10"
               id="rect1331"
               width="6.1711817"
               height="33.229439"
               x="179.50999"
               y="-608.91925"
               transform="scale(1,-1)"
               rx="3.75"
               ry="3.75" /><rect
               ry="3.75"
               rx="3.75"
               transform="scale(1,-1)"
               y="-608.91925"
               x="194.29572"
               height="33.229439"
               width="6.1711817"
               id="rect1333"
               style="fill:#004990;fill-opacity:1;stroke:none;stroke-width:0.8625;stroke-linecap:round;stroke-linejoin:bevel;stroke-miterlimit:10" /><rect
               style="fill:#004990;fill-opacity:1;stroke:none;stroke-width:0.8625;stroke-linecap:round;stroke-linejoin:bevel;stroke-miterlimit:10"
               id="rect1335"
               width="6.1711817"
               height="33.229439"
               x="209.08144"
               y="-608.91925"
               transform="scale(1,-1)"
               rx="3.75"
               ry="3.75" /><rect
               ry="3.75"
               rx="3.75"
               transform="scale(1,-1)"
               y="-608.91925"
               x="120.36715"
               height="33.229439"
               width="6.1711817"
               id="rect1337"
               style="fill:#004990;fill-opacity:1;stroke:none;stroke-width:0.8625;stroke-linecap:round;stroke-linejoin:bevel;stroke-miterlimit:10" /><rect
               style="fill:#004990;fill-opacity:1;stroke:none;stroke-width:0.8625;stroke-linecap:round;stroke-linejoin:bevel;stroke-miterlimit:10"
               id="rect1339"
               width="6.1711817"
               height="33.229439"
               x="223.86716"
               y="-608.91925"
               transform="scale(1,-1)"
               rx="3.75"
               ry="3.75" /></g><g
             transform="translate(1.8375278,-129)"
             id="g1359"><rect
               style="fill:#004990;fill-opacity:1;stroke:none;stroke-width:0.8625;stroke-linecap:round;stroke-linejoin:bevel;stroke-miterlimit:10"
               id="rect1343"
               width="6.1711817"
               height="33.229439"
               x="135.15286"
               y="-608.91925"
               transform="scale(1,-1)"
               rx="3.75"
               ry="3.75" /><rect
               ry="3.75"
               rx="3.75"
               transform="scale(1,-1)"
               y="-608.91925"
               x="149.93857"
               height="33.229439"
               width="6.1711817"
               id="rect1345"
               style="fill:#004990;fill-opacity:1;stroke:none;stroke-width:0.8625;stroke-linecap:round;stroke-linejoin:bevel;stroke-miterlimit:10" /><rect
               style="fill:#004990;fill-opacity:1;stroke:none;stroke-width:0.8625;stroke-linecap:round;stroke-linejoin:bevel;stroke-miterlimit:10"
               id="rect1347"
               width="6.1711817"
               height="33.229439"
               x="164.72429"
               y="-608.91925"
               transform="scale(1,-1)"
               rx="3.75"
               ry="3.75" /><rect
               ry="3.75"
               rx="3.75"
               transform="scale(1,-1)"
               y="-608.91925"
               x="179.50999"
               height="33.229439"
               width="6.1711817"
               id="rect1349"
               style="fill:#004990;fill-opacity:1;stroke:none;stroke-width:0.8625;stroke-linecap:round;stroke-linejoin:bevel;stroke-miterlimit:10" /><rect
               style="fill:#004990;fill-opacity:1;stroke:none;stroke-width:0.8625;stroke-linecap:round;stroke-linejoin:bevel;stroke-miterlimit:10"
               id="rect1351"
               width="6.1711817"
               height="33.229439"
               x="194.29572"
               y="-608.91925"
               transform="scale(1,-1)"
               rx="3.75"
               ry="3.75" /><rect
               ry="3.75"
               rx="3.75"
               transform="scale(1,-1)"
               y="-608.91925"
               x="209.08144"
               height="33.229439"
               width="6.1711817"
               id="rect1353"
               style="fill:#004990;fill-opacity:1;stroke:none;stroke-width:0.8625;stroke-linecap:round;stroke-linejoin:bevel;stroke-miterlimit:10" /><rect
               style="fill:#004990;fill-opacity:1;stroke:none;stroke-width:0.8625;stroke-linecap:round;stroke-linejoin:bevel;stroke-miterlimit:10"
               id="rect1355"
               width="6.1711817"
               height="33.229439"
               x="120.36715"
               y="-608.91925"
               transform="scale(1,-1)"
               rx="3.75"
               ry="3.75" /><rect
               ry="3.75"
               rx="3.75"
               transform="scale(1,-1)"
               y="-608.91925"
               x="223.86716"
               height="33.229439"
               width="6.1711817"
               id="rect1357"
               style="fill:#004990;fill-opacity:1;stroke:none;stroke-width:0.8625;stroke-linecap:round;stroke-linejoin:bevel;stroke-miterlimit:10" /></g></g></g><g
         transform="translate(-85.5,50.88977)"
         id="g1302"><g
           id="g1264"
           transform="translate(1.8375278,-7.4999981)"><rect
             ry="3.75"
             rx="3.75"
             transform="scale(1,-1)"
             y="-608.91925"
             x="135.15286"
             height="33.229439"
             width="6.1711817"
             id="rect1240"
             style="fill:#004990;fill-opacity:1;stroke:none;stroke-width:0.8625;stroke-linecap:round;stroke-linejoin:bevel;stroke-miterlimit:10" /><rect
             style="fill:#004990;fill-opacity:1;stroke:none;stroke-width:0.8625;stroke-linecap:round;stroke-linejoin:bevel;stroke-miterlimit:10"
             id="rect1242"
             width="6.1711817"
             height="33.229439"
             x="149.93857"
             y="-608.91925"
             transform="scale(1,-1)"
             rx="3.75"
             ry="3.75" /><rect
             ry="3.75"
             rx="3.75"
             transform="scale(1,-1)"
             y="-608.91925"
             x="164.72429"
             height="33.229439"
             width="6.1711817"
             id="rect1244"
             style="fill:#004990;fill-opacity:1;stroke:none;stroke-width:0.8625;stroke-linecap:round;stroke-linejoin:bevel;stroke-miterlimit:10" /><rect
             style="fill:#004990;fill-opacity:1;stroke:none;stroke-width:0.8625;stroke-linecap:round;stroke-linejoin:bevel;stroke-miterlimit:10"
             id="rect1246"
             width="6.1711817"
             height="33.229439"
             x="179.50999"
             y="-608.91925"
             transform="scale(1,-1)"
             rx="3.75"
             ry="3.75" /><rect
             ry="3.75"
             rx="3.75"
             transform="scale(1,-1)"
             y="-608.91925"
             x="194.29572"
             height="33.229439"
             width="6.1711817"
             id="rect1248"
             style="fill:#004990;fill-opacity:1;stroke:none;stroke-width:0.8625;stroke-linecap:round;stroke-linejoin:bevel;stroke-miterlimit:10" /><rect
             style="fill:#004990;fill-opacity:1;stroke:none;stroke-width:0.8625;stroke-linecap:round;stroke-linejoin:bevel;stroke-miterlimit:10"
             id="rect1250"
             width="6.1711817"
             height="33.229439"
             x="209.08144"
             y="-608.91925"
             transform="scale(1,-1)"
             rx="3.75"
             ry="3.75" /><rect
             ry="3.75"
             rx="3.75"
             transform="scale(1,-1)"
             y="-608.91925"
             x="120.36715"
             height="33.229439"
             width="6.1711817"
             id="rect1252"
             style="fill:#004990;fill-opacity:1;stroke:none;stroke-width:0.8625;stroke-linecap:round;stroke-linejoin:bevel;stroke-miterlimit:10" /><rect
             style="fill:#004990;fill-opacity:1;stroke:none;stroke-width:0.8625;stroke-linecap:round;stroke-linejoin:bevel;stroke-miterlimit:10"
             id="rect1254"
             width="6.1711817"
             height="33.229439"
             x="223.86716"
             y="-608.91925"
             transform="scale(1,-1)"
             rx="3.75"
             ry="3.75" /></g><g
           transform="translate(1.8375278,-129)"
           id="g1282"><rect
             style="fill:#004990;fill-opacity:1;stroke:none;stroke-width:0.8625;stroke-linecap:round;stroke-linejoin:bevel;stroke-miterlimit:10"
             id="rect1266"
             width="6.1711817"
             height="33.229439"
             x="135.15286"
             y="-608.91925"
             transform="scale(1,-1)"
             rx="3.75"
             ry="3.75" /><rect
             ry="3.75"
             rx="3.75"
             transform="scale(1,-1)"
             y="-608.91925"
             x="149.93857"
             height="33.229439"
             width="6.1711817"
             id="rect1268"
             style="fill:#004990;fill-opacity:1;stroke:none;stroke-width:0.8625;stroke-linecap:round;stroke-linejoin:bevel;stroke-miterlimit:10" /><rect
             style="fill:#004990;fill-opacity:1;stroke:none;stroke-width:0.8625;stroke-linecap:round;stroke-linejoin:bevel;stroke-miterlimit:10"
             id="rect1270"
             width="6.1711817"
             height="33.229439"
             x="164.72429"
             y="-608.91925"
             transform="scale(1,-1)"
             rx="3.75"
             ry="3.75" /><rect
             ry="3.75"
             rx="3.75"
             transform="scale(1,-1)"
             y="-608.91925"
             x="179.50999"
             height="33.229439"
             width="6.1711817"
             id="rect1272"
             style="fill:#004990;fill-opacity:1;stroke:none;stroke-width:0.8625;stroke-linecap:round;stroke-linejoin:bevel;stroke-miterlimit:10" /><rect
             style="fill:#004990;fill-opacity:1;stroke:none;stroke-width:0.8625;stroke-linecap:round;stroke-linejoin:bevel;stroke-miterlimit:10"
             id="rect1274"
             width="6.1711817"
             height="33.229439"
             x="194.29572"
             y="-608.91925"
             transform="scale(1,-1)"
             rx="3.75"
             ry="3.75" /><rect
             ry="3.75"
             rx="3.75"
             transform="scale(1,-1)"
             y="-608.91925"
             x="209.08144"
             height="33.229439"
             width="6.1711817"
             id="rect1276"
             style="fill:#004990;fill-opacity:1;stroke:none;stroke-width:0.8625;stroke-linecap:round;stroke-linejoin:bevel;stroke-miterlimit:10" /><rect
             style="fill:#004990;fill-opacity:1;stroke:none;stroke-width:0.8625;stroke-linecap:round;stroke-linejoin:bevel;stroke-miterlimit:10"
             id="rect1278"
             width="6.1711817"
             height="33.229439"
             x="120.36715"
             y="-608.91925"
             transform="scale(1,-1)"
             rx="3.75"
             ry="3.75" /><rect
             ry="3.75"
             rx="3.75"
             transform="scale(1,-1)"
             y="-608.91925"
             x="223.86716"
             height="33.229439"
             width="6.1711817"
             id="rect1280"
             style="fill:#004990;fill-opacity:1;stroke:none;stroke-width:0.8625;stroke-linecap:round;stroke-linejoin:bevel;stroke-miterlimit:10" /></g></g><rect
         transform="matrix(0,-1,-1,0,0,0)"
         y="-152.86719"
         x="-636.27124"
         height="122.65383"
         width="122.65383"
         id="rect1236"
         style="fill:#004990;fill-opacity:1;stroke:none;stroke-width:0.8625;stroke-linecap:round;stroke-linejoin:bevel;stroke-miterlimit:10" /><path
         id="path1367"
         style="fill:#ffffff;fill-opacity:1;stroke:none;stroke-width:0.951567;stroke-linecap:round;stroke-linejoin:bevel;stroke-miterlimit:10"
         d="m 49.75829,622.19212 a 5.6250001,5.6250001 0 0 0 -5.625,-5.625 5.6250001,5.6250001 0 0 0 -5.625,5.625 5.6250001,5.6250001 0 0 0 5.625,5.625 5.6250001,5.6250001 0 0 0 5.625,-5.625" /></g><g
       aria-label="Computer Engineering"
       transform="scale(1,-1)"
       id="text993"
       style="font-style:normal;font-variant:normal;font-weight:normal;font-stretch:normal;font-size:60px;line-height:1.25;font-family:Met;-inkscape-font-specification:Met;fill:#4d4d4d;fill-opacity:1;stroke-width:0.75"><path
         d="m 217.38451,-594.51421 q -2.52,1.62 -5.46,2.52 -2.94,0.84 -6,0.84 -3.36,0 -6.48,-1.38 -3.12,-1.38 -5.52,-4.08 -2.64,-3 -3.78,-7.02 -1.14,-4.02 -1.14,-8.64 0,-4.56 1.26,-8.46 1.32,-3.9 3.6,-6.72 2.34,-2.88 5.52,-4.44 3.18,-1.62 6.9,-1.62 3,0 5.64,0.9 2.64,0.84 4.74,2.46 l -2.64,3.18 q -1.86,-1.38 -3.72,-1.98 -1.8,-0.6 -4.08,-0.6 -3.6,0 -6.12,1.8 -2.52,1.8 -4.02,5.28 -0.9,2.1 -1.32,4.68 -0.42,2.58 -0.42,6.24 0,3 0.3,4.98 0.3,1.92 1.02,3.72 1.56,3.9 4.5,5.82 3,1.86 6.54,1.86 2.28,0 4.14,-0.6 1.92,-0.66 3.9,-2.04 z"
         style="font-style:normal;font-variant:normal;font-weight:normal;font-stretch:normal;font-family:'Meta Pro';-inkscape-font-specification:'Meta Pro';fill:#4d4d4d;fill-opacity:1;stroke-width:0.75"
         id="path1740" /><path
         d="m 247.02263,-606.27421 q 0,3.72 -0.96,6.6 -0.96,2.82 -2.7,4.74 -1.68,1.92 -4.02,2.94 -2.34,0.96 -5.16,0.96 -6.18,0 -9.54,-4.26 -3.36,-4.26 -3.36,-11.64 0,-7.32 3.36,-11.46 3.42,-4.2 9.36,-4.2 3.78,0 6.24,1.5 2.46,1.5 4.02,3.72 1.38,2.04 2.04,4.74 0.72,2.7 0.72,6.36 z m -5.34,0.36 q 0,-6.18 -1.38,-9 -0.96,-1.98 -2.76,-2.88 -1.74,-0.96 -3.6,-0.96 -1.98,0 -3.66,0.9 -1.68,0.84 -2.46,2.34 -0.72,1.38 -1.08,3.24 -0.36,1.86 -0.36,4.56 0,3.18 0.48,5.82 0.54,2.58 1.38,3.96 0.84,1.38 2.46,2.22 1.68,0.78 3.6,0.78 2.34,0 4.02,-1.14 1.68,-1.2 2.46,-3.36 0.48,-1.38 0.66,-2.82 0.24,-1.44 0.24,-3.66 z"
         style="font-style:normal;font-variant:normal;font-weight:normal;font-stretch:normal;font-family:'Meta Pro';-inkscape-font-specification:'Meta Pro';fill:#4d4d4d;fill-opacity:1;stroke-width:0.75"
         id="path1742" /><path
         d="m 288.83232,-591.81421 v -22.08 q 0,-4.38 -3.84,-4.38 -2.04,0 -3.84,1.26 -1.74,1.2 -4.08,3.36 v 21.84 h -4.74 v -21.24 q 0,-1.38 -0.18,-2.28 -0.18,-0.9 -0.66,-1.56 -1.02,-1.2 -3.06,-1.2 -1.74,0 -3.54,0.96 -1.74,0.9 -4.08,3 v 22.32 h -4.5 v -23.16 q 0,-2.88 -0.48,-4.44 -0.42,-1.62 -0.6,-1.92 l 4.56,-1.08 q 0.18,0.36 0.6,1.74 0.48,1.32 0.48,2.7 0.72,-0.84 1.74,-1.62 1.02,-0.84 2.16,-1.44 1.2,-0.66 2.4,-1.02 1.26,-0.42 2.4,-0.42 2.22,0 4.14,1.32 1.98,1.26 2.82,3.66 2.16,-2.28 4.74,-3.6 2.58,-1.38 4.86,-1.38 3.36,0 5.4,2.28 2.1,2.22 2.1,5.82 v 22.56 z"
         style="font-style:normal;font-variant:normal;font-weight:normal;font-stretch:normal;font-family:'Meta Pro';-inkscape-font-specification:'Meta Pro';fill:#4d4d4d;fill-opacity:1;stroke-width:0.75"
         id="path1744" /><path
         d="m 329.60232,-606.81421 q 0,3.6 -0.6,5.94 -0.54,2.34 -1.8,4.38 -1.62,2.64 -3.96,4.08 -2.34,1.38 -5.28,1.38 -2.28,0 -4.5,-0.9 -2.16,-0.96 -3.72,-2.58 v 14.28 l -4.68,0.9 v -35.88 q 0,-3.06 -0.3,-4.56 -0.24,-1.56 -0.36,-1.86 l 4.8,-0.84 q 0.06,0.18 0.18,1.26 0.12,1.08 0.12,3.3 3.72,-4.38 8.82,-4.38 2.28,0 4.38,0.96 2.16,0.96 3.6,2.76 1.68,2.1 2.46,4.92 0.84,2.82 0.84,6.84 z m -4.98,0.6 q 0,-2.7 -0.36,-4.92 -0.36,-2.28 -1.02,-3.66 -0.72,-1.56 -2.22,-2.4 -1.5,-0.9 -3.3,-0.9 -4.5,0 -7.98,4.2 v 15.06 q 3.42,3.9 7.32,3.9 2.1,0 3.78,-1.02 1.74,-1.02 2.52,-2.7 0.66,-1.44 0.96,-3.24 0.3,-1.8 0.3,-4.32 z"
         style="font-style:normal;font-variant:normal;font-weight:normal;font-stretch:normal;font-family:'Meta Pro';-inkscape-font-specification:'Meta Pro';fill:#4d4d4d;fill-opacity:1;stroke-width:0.75"
         id="path1746" /><path
         d="m 359.87232,-590.55421 q -1.5,-1.2 -2.22,-2.22 -0.72,-1.08 -1.02,-2.58 -3.42,4.56 -9.48,4.56 -2.88,0 -4.92,-1.14 -1.98,-1.14 -2.94,-3.12 -0.42,-0.84 -0.6,-1.98 -0.18,-1.14 -0.18,-2.46 v -21.96 l 4.62,-0.9 v 21.48 q 0,2.1 0.36,3.24 0.42,1.08 1.44,1.8 0.72,0.48 1.68,0.78 0.96,0.24 1.98,0.24 2.22,0 4.32,-1.44 2.1,-1.5 3.3,-3.96 v -21.18 l 4.62,-0.78 v 21.78 q 0,2.82 0.42,4.26 0.48,1.38 1.62,2.4 z"
         style="font-style:normal;font-variant:normal;font-weight:normal;font-stretch:normal;font-family:'Meta Pro';-inkscape-font-specification:'Meta Pro';fill:#4d4d4d;fill-opacity:1;stroke-width:0.75"
         id="path1748" /><path
         d="m 383.07076,-618.15421 h -6.24 v 19.26 q 0,2.52 0.78,3.48 0.84,0.96 3.06,0.96 1.02,0 1.62,-0.12 0.66,-0.18 1.32,-0.48 l 0.66,3 q -2.28,1.2 -5.28,1.2 -1.2,0 -2.16,-0.24 -0.9,-0.18 -1.74,-0.6 -1.56,-0.78 -2.22,-2.22 -0.66,-1.44 -0.66,-3.72 v -20.52 h -3.9 v -3.54 h 3.9 q 0,-0.96 0.06,-2.1 0.06,-1.2 0.12,-2.28 0.12,-1.08 0.18,-1.92 0.06,-0.9 0.12,-1.26 l 4.92,-1.08 q -0.06,0.36 -0.18,1.26 -0.06,0.9 -0.18,2.1 -0.06,1.2 -0.18,2.58 -0.06,1.38 -0.06,2.7 h 7.5 z"
         style="font-style:normal;font-variant:normal;font-weight:normal;font-stretch:normal;font-family:'Meta Pro';-inkscape-font-specification:'Meta Pro';fill:#4d4d4d;fill-opacity:1;stroke-width:0.75"
         id="path1750" /><path
         d="m 394.67794,-605.97421 v 0.72 q 0,2.1 0.3,3.72 0.3,1.62 1.08,2.82 1.26,1.92 3.18,2.82 1.98,0.84 4.26,0.84 4.26,0 7.32,-2.82 l 1.8,3 q -1.98,1.8 -4.62,2.76 -2.58,0.96 -5.46,0.96 -6.24,0 -9.78,-4.2 -3.48,-4.26 -3.48,-11.7 0,-3.78 0.84,-6.36 0.84,-2.64 2.76,-4.92 3.54,-4.14 8.94,-4.14 4.98,0 8.1,3.24 0.96,1.02 1.62,2.1 0.66,1.08 1.02,2.52 0.42,1.44 0.6,3.36 0.18,1.92 0.18,4.62 v 0.66 z m 13.68,-3.54 q -0.06,-2.46 -0.42,-4.02 -0.3,-1.56 -0.96,-2.64 -0.78,-1.2 -2.22,-1.92 -1.44,-0.72 -3.18,-0.72 -6.54,0 -6.9,9.3 z"
         style="font-style:normal;font-variant:normal;font-weight:normal;font-stretch:normal;font-family:'Meta Pro';-inkscape-font-specification:'Meta Pro';fill:#4d4d4d;fill-opacity:1;stroke-width:0.75"
         id="path1752" /><path
         d="m 435.08701,-617.19421 q -0.6,-0.24 -1.32,-0.24 -2.82,0 -4.98,2.16 -1.02,1.02 -1.38,1.98 -0.36,0.9 -0.36,2.76 v 18.72 h -4.68 v -23.04 q 0,-2.94 -0.48,-4.5 -0.42,-1.56 -0.54,-1.86 l 4.68,-1.26 q 0.18,0.36 0.6,1.8 0.48,1.38 0.36,3.06 1.62,-2.28 3.84,-3.6 2.28,-1.38 4.56,-1.38 0.54,0 1.02,0.12 0.48,0.12 0.6,0.18 z"
         style="font-style:normal;font-variant:normal;font-weight:normal;font-stretch:normal;font-family:'Meta Pro';-inkscape-font-specification:'Meta Pro';fill:#4d4d4d;fill-opacity:1;stroke-width:0.75"
         id="path1754" /><path
         d="m 190.80451,-515.35439 v -41.16 h 22.5 l -0.66,4.08 h -16.86 v 13.5 h 14.1 v 4.26 h -14.1 v 15.06 h 18.12 v 4.26 z"
         style="font-style:normal;font-variant:normal;font-weight:normal;font-stretch:normal;font-family:'Meta Pro';-inkscape-font-specification:'Meta Pro';fill:#4d4d4d;fill-opacity:1;stroke-width:0.75"
         id="path1756" /><path
         d="m 239.19638,-515.35439 v -20.22 q 0,-1.2 -0.06,-1.98 -0.06,-0.78 -0.18,-1.32 -0.12,-0.54 -0.36,-0.9 -0.18,-0.42 -0.48,-0.78 -1.08,-1.26 -3.3,-1.26 -0.9,0 -2.04,0.36 -1.08,0.3 -2.22,0.9 -1.08,0.54 -2.16,1.32 -1.08,0.78 -1.86,1.62 v 22.26 h -4.56 v -23.04 q 0,-2.88 -0.48,-4.44 -0.48,-1.56 -0.66,-1.86 l 4.56,-1.26 q 0.18,0.3 0.6,1.68 0.48,1.38 0.48,3 4.62,-4.62 9.42,-4.62 2.46,0 4.44,1.2 1.98,1.2 2.88,3.18 0.72,1.62 0.72,3.48 v 22.68 z"
         style="font-style:normal;font-variant:normal;font-weight:normal;font-stretch:normal;font-family:'Meta Pro';-inkscape-font-specification:'Meta Pro';fill:#4d4d4d;fill-opacity:1;stroke-width:0.75"
         id="path1758" /><path
         d="m 280.51482,-542.59439 q -1.38,1.02 -2.52,1.44 -1.14,0.36 -2.52,0.36 -1.26,0 -2.04,-0.36 1.8,2.28 1.8,5.1 0,2.52 -1.2,4.74 -1.14,2.16 -3.24,3.48 -1.14,0.72 -2.58,1.02 -1.38,0.3 -3,0.3 -3.06,1.08 -4.26,1.92 -1.14,0.78 -1.14,1.56 0,1.44 2.4,1.44 h 4.8 q 2.64,0 4.2,0.36 1.62,0.36 3,1.32 1.74,1.2 2.52,2.82 0.78,1.56 0.78,3.48 0,4.86 -3.24,7.14 -3.18,2.28 -8.64,2.28 -3.54,0 -6,-0.6 -2.46,-0.6 -4.02,-1.62 -1.5,-1.02 -2.22,-2.4 -0.72,-1.38 -0.72,-3 0,-0.84 0.12,-1.56 0.18,-0.72 0.48,-1.62 l 4.92,-0.42 q -0.3,0.48 -0.6,1.2 -0.24,0.78 -0.24,1.5 0,2.4 1.74,3.48 1.08,0.66 2.64,1.02 1.62,0.36 3.42,0.36 3.48,0 5.34,-1.2 1.92,-1.2 1.92,-4.02 0,-2.52 -1.62,-3.6 -0.84,-0.6 -2.28,-0.84 -1.38,-0.24 -3.6,-0.24 h -1.14 q -0.6,0 -1.26,0.06 -0.66,0 -1.26,0 h -0.96 q -2.7,0 -4.2,-1.14 -1.44,-1.14 -1.44,-3.18 0,-1.8 1.14,-2.94 1.2,-1.2 4.26,-2.16 -3.06,-0.96 -4.92,-3.3 -1.8,-2.34 -1.8,-5.34 0,-2.22 0.78,-4.08 0.84,-1.86 2.28,-3.18 1.44,-1.38 3.48,-2.1 2.04,-0.72 4.5,-0.72 1.68,0 2.82,0.3 1.14,0.24 2.04,0.54 0.96,0.3 1.92,0.6 0.96,0.24 2.34,0.24 1.2,0 2.1,-0.3 0.96,-0.3 2.04,-1.02 z m -10.74,6.6 q 0,-3.06 -1.26,-4.5 -1.26,-1.5 -4.26,-1.5 -5.64,0 -5.64,6.18 0,2.88 1.44,4.44 1.44,1.5 4.32,1.5 5.4,0 5.4,-6.12 z"
         style="font-style:normal;font-variant:normal;font-weight:normal;font-stretch:normal;font-family:'Meta Pro';-inkscape-font-specification:'Meta Pro';fill:#4d4d4d;fill-opacity:1;stroke-width:0.75"
         id="path1760" /><path
         d="m 286.19513,-515.35439 v -29.76 l 4.86,-0.78 v 30.54 z m 6.18,-39.12 q 0,1.56 -1.08,2.64 -1.02,1.02 -2.58,1.02 -1.56,0 -2.64,-1.02 -1.02,-1.08 -1.02,-2.58 0,-1.56 1.02,-2.64 1.08,-1.08 2.64,-1.08 1.56,0 2.58,1.08 1.08,1.02 1.08,2.58 z"
         style="font-style:normal;font-variant:normal;font-weight:normal;font-stretch:normal;font-family:'Meta Pro';-inkscape-font-specification:'Meta Pro';fill:#4d4d4d;fill-opacity:1;stroke-width:0.75"
         id="path1762" /><path
         d="m 319.70419,-515.35439 v -20.22 q 0,-1.2 -0.06,-1.98 -0.06,-0.78 -0.18,-1.32 -0.12,-0.54 -0.36,-0.9 -0.18,-0.42 -0.48,-0.78 -1.08,-1.26 -3.3,-1.26 -0.9,0 -2.04,0.36 -1.08,0.3 -2.22,0.9 -1.08,0.54 -2.16,1.32 -1.08,0.78 -1.86,1.62 v 22.26 h -4.56 v -23.04 q 0,-2.88 -0.48,-4.44 -0.48,-1.56 -0.66,-1.86 l 4.56,-1.26 q 0.18,0.3 0.6,1.68 0.48,1.38 0.48,3 4.62,-4.62 9.42,-4.62 2.46,0 4.44,1.2 1.98,1.2 2.88,3.18 0.72,1.62 0.72,3.48 v 22.68 z"
         style="font-style:normal;font-variant:normal;font-weight:normal;font-stretch:normal;font-family:'Meta Pro';-inkscape-font-specification:'Meta Pro';fill:#4d4d4d;fill-opacity:1;stroke-width:0.75"
         id="path1764" /><path
         d="m 339.48263,-529.51439 v 0.72 q 0,2.1 0.3,3.72 0.3,1.62 1.08,2.82 1.26,1.92 3.18,2.82 1.98,0.84 4.26,0.84 4.26,0 7.32,-2.82 l 1.8,3 q -1.98,1.8 -4.62,2.76 -2.58,0.96 -5.46,0.96 -6.24,0 -9.78,-4.2 -3.48,-4.26 -3.48,-11.7 0,-3.78 0.84,-6.36 0.84,-2.64 2.76,-4.92 3.54,-4.14 8.94,-4.14 4.98,0 8.1,3.24 0.96,1.02 1.62,2.1 0.66,1.08 1.02,2.52 0.42,1.44 0.6,3.36 0.18,1.92 0.18,4.62 v 0.66 z m 13.68,-3.54 q -0.06,-2.46 -0.42,-4.02 -0.3,-1.56 -0.96,-2.64 -0.78,-1.2 -2.22,-1.92 -1.44,-0.72 -3.18,-0.72 -6.54,0 -6.9,9.3 z"
         style="font-style:normal;font-variant:normal;font-weight:normal;font-stretch:normal;font-family:'Meta Pro';-inkscape-font-specification:'Meta Pro';fill:#4d4d4d;fill-opacity:1;stroke-width:0.75"
         id="path1766" /><path
         d="m 370.77169,-529.51439 v 0.72 q 0,2.1 0.3,3.72 0.3,1.62 1.08,2.82 1.26,1.92 3.18,2.82 1.98,0.84 4.26,0.84 4.26,0 7.32,-2.82 l 1.8,3 q -1.98,1.8 -4.62,2.76 -2.58,0.96 -5.46,0.96 -6.24,0 -9.78,-4.2 -3.48,-4.26 -3.48,-11.7 0,-3.78 0.84,-6.36 0.84,-2.64 2.76,-4.92 3.54,-4.14 8.94,-4.14 4.98,0 8.1,3.24 0.96,1.02 1.62,2.1 0.66,1.08 1.02,2.52 0.42,1.44 0.6,3.36 0.18,1.92 0.18,4.62 v 0.66 z m 13.68,-3.54 q -0.06,-2.46 -0.42,-4.02 -0.3,-1.56 -0.96,-2.64 -0.78,-1.2 -2.22,-1.92 -1.44,-0.72 -3.18,-0.72 -6.54,0 -6.9,9.3 z"
         style="font-style:normal;font-variant:normal;font-weight:normal;font-stretch:normal;font-family:'Meta Pro';-inkscape-font-specification:'Meta Pro';fill:#4d4d4d;fill-opacity:1;stroke-width:0.75"
         id="path1768" /><path
         d="m 411.18076,-540.73439 q -0.6,-0.24 -1.32,-0.24 -2.82,0 -4.98,2.16 -1.02,1.02 -1.38,1.98 -0.36,0.9 -0.36,2.76 v 18.72 h -4.68 v -23.04 q 0,-2.94 -0.48,-4.5 -0.42,-1.56 -0.54,-1.86 l 4.68,-1.26 q 0.18,0.36 0.6,1.8 0.48,1.38 0.36,3.06 1.62,-2.28 3.84,-3.6 2.28,-1.38 4.56,-1.38 0.54,0 1.02,0.12 0.48,0.12 0.6,0.18 z"
         style="font-style:normal;font-variant:normal;font-weight:normal;font-stretch:normal;font-family:'Meta Pro';-inkscape-font-specification:'Meta Pro';fill:#4d4d4d;fill-opacity:1;stroke-width:0.75"
         id="path1770" /><path
         d="m 417.91388,-515.35439 v -29.76 l 4.86,-0.78 v 30.54 z m 6.18,-39.12 q 0,1.56 -1.08,2.64 -1.02,1.02 -2.58,1.02 -1.56,0 -2.64,-1.02 -1.02,-1.08 -1.02,-2.58 0,-1.56 1.02,-2.64 1.08,-1.08 2.64,-1.08 1.56,0 2.58,1.08 1.08,1.02 1.08,2.58 z"
         style="font-style:normal;font-variant:normal;font-weight:normal;font-stretch:normal;font-family:'Meta Pro';-inkscape-font-specification:'Meta Pro';fill:#4d4d4d;fill-opacity:1;stroke-width:0.75"
         id="path1772" /><path
         d="m 451.42294,-515.35439 v -20.22 q 0,-1.2 -0.06,-1.98 -0.06,-0.78 -0.18,-1.32 -0.12,-0.54 -0.36,-0.9 -0.18,-0.42 -0.48,-0.78 -1.08,-1.26 -3.3,-1.26 -0.9,0 -2.04,0.36 -1.08,0.3 -2.22,0.9 -1.08,0.54 -2.16,1.32 -1.08,0.78 -1.86,1.62 v 22.26 h -4.56 v -23.04 q 0,-2.88 -0.48,-4.44 -0.48,-1.56 -0.66,-1.86 l 4.56,-1.26 q 0.18,0.3 0.6,1.68 0.48,1.38 0.48,3 4.62,-4.62 9.42,-4.62 2.46,0 4.44,1.2 1.98,1.2 2.88,3.18 0.72,1.62 0.72,3.48 v 22.68 z"
         style="font-style:normal;font-variant:normal;font-weight:normal;font-stretch:normal;font-family:'Meta Pro';-inkscape-font-specification:'Meta Pro';fill:#4d4d4d;fill-opacity:1;stroke-width:0.75"
         id="path1774" /><path
         d="m 492.74138,-542.59439 q -1.38,1.02 -2.52,1.44 -1.14,0.36 -2.52,0.36 -1.26,0 -2.04,-0.36 1.8,2.28 1.8,5.1 0,2.52 -1.2,4.74 -1.14,2.16 -3.24,3.48 -1.14,0.72 -2.58,1.02 -1.38,0.3 -3,0.3 -3.06,1.08 -4.26,1.92 -1.14,0.78 -1.14,1.56 0,1.44 2.4,1.44 h 4.8 q 2.64,0 4.2,0.36 1.62,0.36 3,1.32 1.74,1.2 2.52,2.82 0.78,1.56 0.78,3.48 0,4.86 -3.24,7.14 -3.18,2.28 -8.64,2.28 -3.54,0 -6,-0.6 -2.46,-0.6 -4.02,-1.62 -1.5,-1.02 -2.22,-2.4 -0.72,-1.38 -0.72,-3 0,-0.84 0.12,-1.56 0.18,-0.72 0.48,-1.62 l 4.92,-0.42 q -0.3,0.48 -0.6,1.2 -0.24,0.78 -0.24,1.5 0,2.4 1.74,3.48 1.08,0.66 2.64,1.02 1.62,0.36 3.42,0.36 3.48,0 5.34,-1.2 1.92,-1.2 1.92,-4.02 0,-2.52 -1.62,-3.6 -0.84,-0.6 -2.28,-0.84 -1.38,-0.24 -3.6,-0.24 h -1.14 q -0.6,0 -1.26,0.06 -0.66,0 -1.26,0 h -0.96 q -2.7,0 -4.2,-1.14 -1.44,-1.14 -1.44,-3.18 0,-1.8 1.14,-2.94 1.2,-1.2 4.26,-2.16 -3.06,-0.96 -4.92,-3.3 -1.8,-2.34 -1.8,-5.34 0,-2.22 0.78,-4.08 0.84,-1.86 2.28,-3.18 1.44,-1.38 3.48,-2.1 2.04,-0.72 4.5,-0.72 1.68,0 2.82,0.3 1.14,0.24 2.04,0.54 0.96,0.3 1.92,0.6 0.96,0.24 2.34,0.24 1.2,0 2.1,-0.3 0.96,-0.3 2.04,-1.02 z m -10.74,6.6 q 0,-3.06 -1.26,-4.5 -1.26,-1.5 -4.26,-1.5 -5.64,0 -5.64,6.18 0,2.88 1.44,4.44 1.44,1.5 4.32,1.5 5.4,0 5.4,-6.12 z"
         style="font-style:normal;font-variant:normal;font-weight:normal;font-stretch:normal;font-family:'Meta Pro';-inkscape-font-specification:'Meta Pro';fill:#4d4d4d;fill-opacity:1;stroke-width:0.75"
         id="path1776" /></g><g
       style="font-size:40px;line-height:1.25;font-family:sans-serif;stroke-width:0.75"
       id="text1001"
       transform="scale(1,-1)"
       aria-label="17"><path
         id="path1009"
         style="font-style:normal;font-variant:normal;font-weight:normal;font-stretch:normal;font-size:40px;font-family:'Meta Pro';-inkscape-font-specification:'Meta Pro';fill:#ffffff;stroke-width:0.75"
         d="m 109.62871,-531.92877 v -2.52 h 3.68 v -13.96 q -1.28,0.84 -2.68,1.44 -1.36,0.56 -2.76,1.12 l -0.68,-1.72 6.84,-4.64 h 2.44 v 17.76 h 3.68 v 2.52 z" /><path
         id="path1011"
         style="font-style:normal;font-variant:normal;font-weight:normal;font-stretch:normal;font-size:40px;font-family:'Meta Pro';-inkscape-font-specification:'Meta Pro';fill:#ffffff;stroke-width:0.75"
         d="m 139.59121,-548.68877 q -4,5.52 -7.16,11.56 -0.6,1.12 -1.28,2.56 -0.64,1.44 -1.24,3 -0.6,1.56 -1.12,3.08 -0.48,1.52 -0.76,2.84 l -3.84,1 q 0.2,-1.48 0.88,-3.36 0.68,-1.88 1.52,-3.8 0.84,-1.92 1.72,-3.64 0.88,-1.76 1.48,-2.92 1.92,-3.52 3.84,-6.36 1.92,-2.84 3.56,-4.56 -0.16,0 -0.6,0.04 -0.4,0 -0.96,0 -0.52,0 -1.08,0.04 -0.56,0 -1.04,0 h -10.56 l 0.76,-2.64 h 16.64 z" /></g></g></svg>
