<?xml version="1.0" encoding="UTF-8" standalone="no"?>
<svg
   inkscape:export-ydpi="284.67801"
   inkscape:export-xdpi="284.67801"
   inkscape:export-filename="/Users/myzinsky/Nextcloud/Lehrstuhl/Wü-Lehrstuhl-CI/Logo/Synbol_Color.png"
   version="1.1"
   id="svg10"
   xml:space="preserve"
   width="216.30591"
   height="216.30591"
   viewBox="0 0 216.30591 216.30589"
   sodipodi:docname="Symbol_White.svg"
   inkscape:version="1.4.3 (0d15f75, 2025-12-25)"
   xmlns:inkscape="http://www.inkscape.org/namespaces/inkscape"
   xmlns:sodipodi="http://sodipodi.sourceforge.net/DTD/sodipodi-0.dtd"
   xmlns="http://www.w3.org/2000/svg"
   xmlns:svg="http://www.w3.org/2000/svg"
   xmlns:rdf="http://www.w3.org/1999/02/22-rdf-syntax-ns#"
   xmlns:cc="http://creativecommons.org/ns#"
   xmlns:dc="http://purl.org/dc/elements/1.1/"><metadata
     id="metadata16"><rdf:RDF><cc:Work
         rdf:about=""><dc:format>image/svg+xml</dc:format><dc:type
           rdf:resource="http://purl.org/dc/dcmitype/StillImage" /></cc:Work></rdf:RDF></metadata><defs
     id="defs14"><clipPath
       clipPathUnits="userSpaceOnUse"
       id="clipPath28"><path
         d="M 970.92,789.746 H 74.581 V 508.359 H 970.92 Z"
         id="path26" /></clipPath><clipPath
       clipPathUnits="userSpaceOnUse"
       id="clipPath34"><path
         d="m 67.708,615.952 h 527.93 V 404.725 H 67.708 Z"
         clip-rule="evenodd"
         id="path32" /></clipPath><clipPath
       clipPathUnits="userSpaceOnUse"
       id="clipPath40"><path
         d="M 0.362,841.945 H 595.638 V 0.055 H 0.362 Z"
         id="path38" /></clipPath><clipPath
       clipPathUnits="userSpaceOnUse"
       id="clipPath46"><path
         d="M 0.059998,842.04 H 596.1 V 0 H 0.059998 Z"
         id="path44" /></clipPath><clipPath
       clipPathUnits="userSpaceOnUse"
       id="clipPath62"><path
         d="M 295.223,575.356 H 689.062 V 508.359 H 295.223 Z"
         id="path60" /></clipPath><clipPath
       clipPathUnits="userSpaceOnUse"
       id="clipPath68"><path
         d="M 970.92,789.746 H 74.581 V 508.359 H 970.92 Z"
         id="path66" /></clipPath><clipPath
       clipPathUnits="userSpaceOnUse"
       id="clipPath74"><path
         d="m 67.708,615.952 h 527.93 V 404.725 H 67.708 Z"
         clip-rule="evenodd"
         id="path72" /></clipPath><clipPath
       clipPathUnits="userSpaceOnUse"
       id="clipPath80"><path
         d="M 0.362,841.945 H 595.638 V 0.055 H 0.362 Z"
         id="path78" /></clipPath><clipPath
       clipPathUnits="userSpaceOnUse"
       id="clipPath86"><path
         d="M 0.059998,842.04 H 596.1 V 0 H 0.059998 Z"
         id="path84" /></clipPath><clipPath
       clipPathUnits="userSpaceOnUse"
       id="clipPath104"><path
         d="M 970.92,789.746 H 74.581 V 508.359 H 970.92 Z"
         id="path102" /></clipPath><clipPath
       clipPathUnits="userSpaceOnUse"
       id="clipPath110"><path
         d="m 67.708,615.952 h 527.93 V 404.725 H 67.708 Z"
         clip-rule="evenodd"
         id="path108" /></clipPath><clipPath
       clipPathUnits="userSpaceOnUse"
       id="clipPath116"><path
         d="M 0.362,841.945 H 595.638 V 0.055 H 0.362 Z"
         id="path114" /></clipPath><clipPath
       clipPathUnits="userSpaceOnUse"
       id="clipPath122"><path
         d="M 0.059998,842.04 H 596.1 V 0 H 0.059998 Z"
         id="path120" /></clipPath><clipPath
       clipPathUnits="userSpaceOnUse"
       id="clipPath262"><path
         d="M 0.362,841.945 H 595.638 V 0.055 H 0.362 Z"
         id="path260" /></clipPath><clipPath
       clipPathUnits="userSpaceOnUse"
       id="clipPath268"><path
         d="M 0.059998,842.04 H 596.1 V 0 H 0.059998 Z"
         id="path266" /></clipPath><inkscape:perspective
       id="perspective2410"
       inkscape:persp3d-origin="372.04724 : -555.57339 : 1"
       inkscape:vp_z="744.09448 : -380.17969 : 1"
       inkscape:vp_y="0 : 999.99995 : 0"
       inkscape:vp_x="0 : -380.17969 : 1"
       sodipodi:type="inkscape:persp3d" /><clipPath
       id="clipPath2418"
       clipPathUnits="userSpaceOnUse"><path
         id="path2420"
         d="M 0,841.89 H 595.276 V 0 H 0 Z" /></clipPath><clipPath
       id="clipPath28-9"
       clipPathUnits="userSpaceOnUse"><path
         id="path26-8"
         d="M 970.92,789.746 H 74.581 V 508.359 H 970.92 Z" /></clipPath><clipPath
       id="clipPath34-6"
       clipPathUnits="userSpaceOnUse"><path
         id="path32-6"
         clip-rule="evenodd"
         d="m 67.708,615.952 h 527.93 V 404.725 H 67.708 Z" /></clipPath><clipPath
       id="clipPath40-0"
       clipPathUnits="userSpaceOnUse"><path
         id="path38-4"
         d="M 0.362,841.945 H 595.638 V 0.055 H 0.362 Z" /></clipPath><clipPath
       id="clipPath46-6"
       clipPathUnits="userSpaceOnUse"><path
         id="path44-1"
         d="M 0.059998,842.04 H 596.1 V 0 H 0.059998 Z" /></clipPath><clipPath
       id="clipPath62-3"
       clipPathUnits="userSpaceOnUse"><path
         id="path60-2"
         d="M 295.223,575.356 H 689.062 V 508.359 H 295.223 Z" /></clipPath><clipPath
       id="clipPath68-3"
       clipPathUnits="userSpaceOnUse"><path
         id="path66-4"
         d="M 970.92,789.746 H 74.581 V 508.359 H 970.92 Z" /></clipPath><clipPath
       id="clipPath74-9"
       clipPathUnits="userSpaceOnUse"><path
         id="path72-0"
         clip-rule="evenodd"
         d="m 67.708,615.952 h 527.93 V 404.725 H 67.708 Z" /></clipPath><clipPath
       id="clipPath80-8"
       clipPathUnits="userSpaceOnUse"><path
         id="path78-3"
         d="M 0.362,841.945 H 595.638 V 0.055 H 0.362 Z" /></clipPath><clipPath
       id="clipPath86-4"
       clipPathUnits="userSpaceOnUse"><path
         id="path84-6"
         d="M 0.059998,842.04 H 596.1 V 0 H 0.059998 Z" /></clipPath><clipPath
       id="clipPath104-7"
       clipPathUnits="userSpaceOnUse"><path
         id="path102-8"
         d="M 970.92,789.746 H 74.581 V 508.359 H 970.92 Z" /></clipPath><clipPath
       id="clipPath110-8"
       clipPathUnits="userSpaceOnUse"><path
         id="path108-8"
         clip-rule="evenodd"
         d="m 67.708,615.952 h 527.93 V 404.725 H 67.708 Z" /></clipPath><clipPath
       id="clipPath116-3"
       clipPathUnits="userSpaceOnUse"><path
         id="path114-0"
         d="M 0.362,841.945 H 595.638 V 0.055 H 0.362 Z" /></clipPath><clipPath
       id="clipPath122-5"
       clipPathUnits="userSpaceOnUse"><path
         id="path120-9"
         d="M 0.059998,842.04 H 596.1 V 0 H 0.059998 Z" /></clipPath><clipPath
       id="clipPath262-0"
       clipPathUnits="userSpaceOnUse"><path
         id="path260-8"
         d="M 0.362,841.945 H 595.638 V 0.055 H 0.362 Z" /></clipPath><clipPath
       id="clipPath268-0"
       clipPathUnits="userSpaceOnUse"><path
         id="path266-6"
         d="M 0.059998,842.04 H 596.1 V 0 H 0.059998 Z" /></clipPath><inkscape:perspective
       sodipodi:type="inkscape:persp3d"
       inkscape:vp_x="0 : -380.17969 : 1"
       inkscape:vp_y="0 : 999.99995 : 0"
       inkscape:vp_z="744.09448 : -380.17969 : 1"
       inkscape:persp3d-origin="372.04724 : -555.57339 : 1"
       id="perspective2410-8" /><clipPath
       clipPathUnits="userSpaceOnUse"
       id="clipPath2418-7"><path
         d="M 0,841.89 H 595.276 V 0 H 0 Z"
         id="path2420-6" /></clipPath><clipPath
       id="clipPath28-2"
       clipPathUnits="userSpaceOnUse"><path
         id="path26-2"
         d="M 970.92,789.746 H 74.581 V 508.359 H 970.92 Z" /></clipPath><clipPath
       id="clipPath34-4"
       clipPathUnits="userSpaceOnUse"><path
         id="path32-4"
         clip-rule="evenodd"
         d="m 67.708,615.952 h 527.93 V 404.725 H 67.708 Z" /></clipPath><clipPath
       id="clipPath40-7"
       clipPathUnits="userSpaceOnUse"><path
         id="path38-3"
         d="M 0.362,841.945 H 595.638 V 0.055 H 0.362 Z" /></clipPath><clipPath
       id="clipPath46-4"
       clipPathUnits="userSpaceOnUse"><path
         id="path44-19"
         d="M 0.059998,842.04 H 596.1 V 0 H 0.059998 Z" /></clipPath><clipPath
       id="clipPath62-4"
       clipPathUnits="userSpaceOnUse"><path
         id="path60-5"
         d="M 295.223,575.356 H 689.062 V 508.359 H 295.223 Z" /></clipPath><clipPath
       id="clipPath68-4"
       clipPathUnits="userSpaceOnUse"><path
         id="path66-9"
         d="M 970.92,789.746 H 74.581 V 508.359 H 970.92 Z" /></clipPath><clipPath
       id="clipPath74-1"
       clipPathUnits="userSpaceOnUse"><path
         id="path72-4"
         clip-rule="evenodd"
         d="m 67.708,615.952 h 527.93 V 404.725 H 67.708 Z" /></clipPath><clipPath
       id="clipPath80-6"
       clipPathUnits="userSpaceOnUse"><path
         id="path78-4"
         d="M 0.362,841.945 H 595.638 V 0.055 H 0.362 Z" /></clipPath><clipPath
       id="clipPath86-41"
       clipPathUnits="userSpaceOnUse"><path
         id="path84-3"
         d="M 0.059998,842.04 H 596.1 V 0 H 0.059998 Z" /></clipPath><clipPath
       id="clipPath104-78"
       clipPathUnits="userSpaceOnUse"><path
         id="path102-80"
         d="M 970.92,789.746 H 74.581 V 508.359 H 970.92 Z" /></clipPath><clipPath
       id="clipPath110-3"
       clipPathUnits="userSpaceOnUse"><path
         id="path108-0"
         clip-rule="evenodd"
         d="m 67.708,615.952 h 527.93 V 404.725 H 67.708 Z" /></clipPath><clipPath
       id="clipPath116-2"
       clipPathUnits="userSpaceOnUse"><path
         id="path114-4"
         d="M 0.362,841.945 H 595.638 V 0.055 H 0.362 Z" /></clipPath><clipPath
       id="clipPath122-6"
       clipPathUnits="userSpaceOnUse"><path
         id="path120-1"
         d="M 0.059998,842.04 H 596.1 V 0 H 0.059998 Z" /></clipPath><clipPath
       id="clipPath262-1"
       clipPathUnits="userSpaceOnUse"><path
         id="path260-7"
         d="M 0.362,841.945 H 595.638 V 0.055 H 0.362 Z" /></clipPath><clipPath
       id="clipPath268-1"
       clipPathUnits="userSpaceOnUse"><path
         id="path266-7"
         d="M 0.059998,842.04 H 596.1 V 0 H 0.059998 Z" /></clipPath><inkscape:perspective
       sodipodi:type="inkscape:persp3d"
       inkscape:vp_x="0 : -380.17969 : 1"
       inkscape:vp_y="0 : 999.99995 : 0"
       inkscape:vp_z="744.09448 : -380.17969 : 1"
       inkscape:persp3d-origin="372.04724 : -555.57339 : 1"
       id="perspective2410-1" /><clipPath
       clipPathUnits="userSpaceOnUse"
       id="clipPath2418-6"><path
         d="M 0,841.89 H 595.276 V 0 H 0 Z"
         id="path2420-5" /></clipPath><clipPath
       id="clipPath28-1"
       clipPathUnits="userSpaceOnUse"><path
         id="path26-0"
         d="M 970.92,789.746 H 74.581 V 508.359 H 970.92 Z" /></clipPath><clipPath
       id="clipPath34-1"
       clipPathUnits="userSpaceOnUse"><path
         id="path32-9"
         clip-rule="evenodd"
         d="m 67.708,615.952 h 527.93 V 404.725 H 67.708 Z" /></clipPath><clipPath
       id="clipPath40-5"
       clipPathUnits="userSpaceOnUse"><path
         id="path38-7"
         d="M 0.362,841.945 H 595.638 V 0.055 H 0.362 Z" /></clipPath><clipPath
       id="clipPath46-68"
       clipPathUnits="userSpaceOnUse"><path
         id="path44-5"
         d="M 0.059998,842.04 H 596.1 V 0 H 0.059998 Z" /></clipPath><clipPath
       id="clipPath62-47"
       clipPathUnits="userSpaceOnUse"><path
         id="path60-9"
         d="M 295.223,575.356 H 689.062 V 508.359 H 295.223 Z" /></clipPath><clipPath
       id="clipPath68-6"
       clipPathUnits="userSpaceOnUse"><path
         id="path66-6"
         d="M 970.92,789.746 H 74.581 V 508.359 H 970.92 Z" /></clipPath><clipPath
       id="clipPath74-6"
       clipPathUnits="userSpaceOnUse"><path
         id="path72-6"
         clip-rule="evenodd"
         d="m 67.708,615.952 h 527.93 V 404.725 H 67.708 Z" /></clipPath><clipPath
       id="clipPath80-7"
       clipPathUnits="userSpaceOnUse"><path
         id="path78-0"
         d="M 0.362,841.945 H 595.638 V 0.055 H 0.362 Z" /></clipPath><clipPath
       id="clipPath86-410"
       clipPathUnits="userSpaceOnUse"><path
         id="path84-8"
         d="M 0.059998,842.04 H 596.1 V 0 H 0.059998 Z" /></clipPath><clipPath
       id="clipPath104-1"
       clipPathUnits="userSpaceOnUse"><path
         id="path102-4"
         d="M 970.92,789.746 H 74.581 V 508.359 H 970.92 Z" /></clipPath><clipPath
       id="clipPath110-88"
       clipPathUnits="userSpaceOnUse"><path
         id="path108-4"
         clip-rule="evenodd"
         d="m 67.708,615.952 h 527.93 V 404.725 H 67.708 Z" /></clipPath><clipPath
       id="clipPath116-5"
       clipPathUnits="userSpaceOnUse"><path
         id="path114-7"
         d="M 0.362,841.945 H 595.638 V 0.055 H 0.362 Z" /></clipPath><clipPath
       id="clipPath122-9"
       clipPathUnits="userSpaceOnUse"><path
         id="path120-8"
         d="M 0.059998,842.04 H 596.1 V 0 H 0.059998 Z" /></clipPath><clipPath
       id="clipPath262-4"
       clipPathUnits="userSpaceOnUse"><path
         id="path260-5"
         d="M 0.362,841.945 H 595.638 V 0.055 H 0.362 Z" /></clipPath><clipPath
       id="clipPath268-8"
       clipPathUnits="userSpaceOnUse"><path
         id="path266-8"
         d="M 0.059998,842.04 H 596.1 V 0 H 0.059998 Z" /></clipPath><inkscape:perspective
       sodipodi:type="inkscape:persp3d"
       inkscape:vp_x="0 : -380.17969 : 1"
       inkscape:vp_y="0 : 999.99995 : 0"
       inkscape:vp_z="744.09448 : -380.17969 : 1"
       inkscape:persp3d-origin="372.04724 : -555.57339 : 1"
       id="perspective2410-9" /><clipPath
       clipPathUnits="userSpaceOnUse"
       id="clipPath2418-4"><path
         d="M 0,841.89 H 595.276 V 0 H 0 Z"
         id="path2420-7" /></clipPath><clipPath
       clipPathUnits="userSpaceOnUse"
       id="clipPath28-9-0"><path
         d="M 970.92,789.746 H 74.581 V 508.359 H 970.92 Z"
         id="path26-8-4" /></clipPath><clipPath
       clipPathUnits="userSpaceOnUse"
       id="clipPath34-6-0"><path
         d="m 67.708,615.952 h 527.93 V 404.725 H 67.708 Z"
         clip-rule="evenodd"
         id="path32-6-6" /></clipPath><clipPath
       clipPathUnits="userSpaceOnUse"
       id="clipPath40-0-5"><path
         d="M 0.362,841.945 H 595.638 V 0.055 H 0.362 Z"
         id="path38-4-3" /></clipPath><clipPath
       clipPathUnits="userSpaceOnUse"
       id="clipPath46-6-8"><path
         d="M 0.059998,842.04 H 596.1 V 0 H 0.059998 Z"
         id="path44-1-5" /></clipPath><clipPath
       clipPathUnits="userSpaceOnUse"
       id="clipPath62-3-1"><path
         d="M 295.223,575.356 H 689.062 V 508.359 H 295.223 Z"
         id="path60-2-2" /></clipPath><clipPath
       clipPathUnits="userSpaceOnUse"
       id="clipPath68-3-4"><path
         d="M 970.92,789.746 H 74.581 V 508.359 H 970.92 Z"
         id="path66-4-6" /></clipPath><clipPath
       clipPathUnits="userSpaceOnUse"
       id="clipPath74-9-7"><path
         d="m 67.708,615.952 h 527.93 V 404.725 H 67.708 Z"
         clip-rule="evenodd"
         id="path72-0-5" /></clipPath><clipPath
       clipPathUnits="userSpaceOnUse"
       id="clipPath80-8-5"><path
         d="M 0.362,841.945 H 595.638 V 0.055 H 0.362 Z"
         id="path78-3-0" /></clipPath><clipPath
       clipPathUnits="userSpaceOnUse"
       id="clipPath86-4-5"><path
         d="M 0.059998,842.04 H 596.1 V 0 H 0.059998 Z"
         id="path84-6-2" /></clipPath><clipPath
       clipPathUnits="userSpaceOnUse"
       id="clipPath104-7-0"><path
         d="M 970.92,789.746 H 74.581 V 508.359 H 970.92 Z"
         id="path102-8-7" /></clipPath><clipPath
       clipPathUnits="userSpaceOnUse"
       id="clipPath110-8-7"><path
         d="m 67.708,615.952 h 527.93 V 404.725 H 67.708 Z"
         clip-rule="evenodd"
         id="path108-8-9" /></clipPath><clipPath
       clipPathUnits="userSpaceOnUse"
       id="clipPath116-3-7"><path
         d="M 0.362,841.945 H 595.638 V 0.055 H 0.362 Z"
         id="path114-0-5" /></clipPath><clipPath
       clipPathUnits="userSpaceOnUse"
       id="clipPath122-5-3"><path
         d="M 0.059998,842.04 H 596.1 V 0 H 0.059998 Z"
         id="path120-9-9" /></clipPath><clipPath
       clipPathUnits="userSpaceOnUse"
       id="clipPath262-0-9"><path
         d="M 0.362,841.945 H 595.638 V 0.055 H 0.362 Z"
         id="path260-8-4" /></clipPath><clipPath
       clipPathUnits="userSpaceOnUse"
       id="clipPath268-0-9"><path
         d="M 0.059998,842.04 H 596.1 V 0 H 0.059998 Z"
         id="path266-6-1" /></clipPath><inkscape:perspective
       id="perspective2410-8-5"
       inkscape:persp3d-origin="372.04724 : -555.57339 : 1"
       inkscape:vp_z="744.09448 : -380.17969 : 1"
       inkscape:vp_y="0 : 999.99995 : 0"
       inkscape:vp_x="0 : -380.17969 : 1"
       sodipodi:type="inkscape:persp3d" /><clipPath
       id="clipPath2418-7-9"
       clipPathUnits="userSpaceOnUse"><path
         id="path2420-6-8"
         d="M 0,841.89 H 595.276 V 0 H 0 Z" /></clipPath><clipPath
       clipPathUnits="userSpaceOnUse"
       id="clipPath28-2-3"><path
         d="M 970.92,789.746 H 74.581 V 508.359 H 970.92 Z"
         id="path26-2-0" /></clipPath><clipPath
       clipPathUnits="userSpaceOnUse"
       id="clipPath34-4-9"><path
         d="m 67.708,615.952 h 527.93 V 404.725 H 67.708 Z"
         clip-rule="evenodd"
         id="path32-4-0" /></clipPath><clipPath
       clipPathUnits="userSpaceOnUse"
       id="clipPath40-7-7"><path
         d="M 0.362,841.945 H 595.638 V 0.055 H 0.362 Z"
         id="path38-3-6" /></clipPath><clipPath
       clipPathUnits="userSpaceOnUse"
       id="clipPath46-4-8"><path
         d="M 0.059998,842.04 H 596.1 V 0 H 0.059998 Z"
         id="path44-19-3" /></clipPath><clipPath
       clipPathUnits="userSpaceOnUse"
       id="clipPath62-4-8"><path
         d="M 295.223,575.356 H 689.062 V 508.359 H 295.223 Z"
         id="path60-5-6" /></clipPath><clipPath
       clipPathUnits="userSpaceOnUse"
       id="clipPath68-4-1"><path
         d="M 970.92,789.746 H 74.581 V 508.359 H 970.92 Z"
         id="path66-9-9" /></clipPath><clipPath
       clipPathUnits="userSpaceOnUse"
       id="clipPath74-1-6"><path
         d="m 67.708,615.952 h 527.93 V 404.725 H 67.708 Z"
         clip-rule="evenodd"
         id="path72-4-7" /></clipPath><clipPath
       clipPathUnits="userSpaceOnUse"
       id="clipPath80-6-8"><path
         d="M 0.362,841.945 H 595.638 V 0.055 H 0.362 Z"
         id="path78-4-9" /></clipPath><clipPath
       clipPathUnits="userSpaceOnUse"
       id="clipPath86-41-7"><path
         d="M 0.059998,842.04 H 596.1 V 0 H 0.059998 Z"
         id="path84-3-5" /></clipPath><clipPath
       clipPathUnits="userSpaceOnUse"
       id="clipPath104-78-5"><path
         d="M 970.92,789.746 H 74.581 V 508.359 H 970.92 Z"
         id="path102-80-2" /></clipPath><clipPath
       clipPathUnits="userSpaceOnUse"
       id="clipPath110-3-4"><path
         d="m 67.708,615.952 h 527.93 V 404.725 H 67.708 Z"
         clip-rule="evenodd"
         id="path108-0-9" /></clipPath><clipPath
       clipPathUnits="userSpaceOnUse"
       id="clipPath116-2-4"><path
         d="M 0.362,841.945 H 595.638 V 0.055 H 0.362 Z"
         id="path114-4-4" /></clipPath><clipPath
       clipPathUnits="userSpaceOnUse"
       id="clipPath122-6-7"><path
         d="M 0.059998,842.04 H 596.1 V 0 H 0.059998 Z"
         id="path120-1-9" /></clipPath><clipPath
       clipPathUnits="userSpaceOnUse"
       id="clipPath262-1-5"><path
         d="M 0.362,841.945 H 595.638 V 0.055 H 0.362 Z"
         id="path260-7-5" /></clipPath><clipPath
       clipPathUnits="userSpaceOnUse"
       id="clipPath268-1-6"><path
         d="M 0.059998,842.04 H 596.1 V 0 H 0.059998 Z"
         id="path266-7-1" /></clipPath><inkscape:perspective
       id="perspective2410-1-5"
       inkscape:persp3d-origin="372.04724 : -555.57339 : 1"
       inkscape:vp_z="744.09448 : -380.17969 : 1"
       inkscape:vp_y="0 : 999.99995 : 0"
       inkscape:vp_x="0 : -380.17969 : 1"
       sodipodi:type="inkscape:persp3d" /><clipPath
       id="clipPath2418-6-9"
       clipPathUnits="userSpaceOnUse"><path
         id="path2420-5-1"
         d="M 0,841.89 H 595.276 V 0 H 0 Z" /></clipPath></defs><sodipodi:namedview
     fit-margin-bottom="5"
     fit-margin-right="5"
     fit-margin-left="5"
     fit-margin-top="5"
     inkscape:document-rotation="0"
     pagecolor="#ffffff"
     bordercolor="#666666"
     borderopacity="1"
     objecttolerance="10"
     gridtolerance="10"
     guidetolerance="10"
     inkscape:pageopacity="0"
     inkscape:pageshadow="2"
     inkscape:window-width="1512"
     inkscape:window-height="949"
     id="namedview12"
     showgrid="false"
     inkscape:zoom="2.3255793"
     inkscape:cx="102.77009"
     inkscape:cy="156.95014"
     inkscape:window-x="0"
     inkscape:window-y="33"
     inkscape:window-maximized="0"
     inkscape:current-layer="g18"
     showguides="true"
     inkscape:guide-bbox="true"
     inkscape:showpageshadow="2"
     inkscape:pagecheckerboard="0"
     inkscape:deskcolor="#d1d1d1" /><g
     id="g18"
     inkscape:groupmode="layer"
     inkscape:label="CI-Handbuch2"
     transform="matrix(1.3333333,0,0,-1.3333333,-13.900735,874.74534)"><path
       id="rect1325"
       style="fill:#ffffff;fill-opacity:1;stroke:none;stroke-width:0.8625;stroke-linecap:round;stroke-linejoin:bevel;stroke-miterlimit:10"
       d="M -652.30902 -39.78981 C -652.30902 -38.080393 -650.63652 -36.704849 -648.55902 -36.704849 L -636.27191 -36.704849 L -636.27191 -30.212661 L -629.77972 -30.212661 L -629.77972 -17.925552 C -629.77972 -15.848052 -628.40418 -14.175552 -626.69476 -14.175552 C -624.98535 -14.175552 -623.60834 -15.848052 -623.60834 -17.925552 L -623.60834 -30.212661 L -614.99359 -30.212661 L -614.99359 -17.925552 C -614.99359 -15.848052 -613.61805 -14.175552 -611.90863 -14.175552 C -610.19921 -14.175552 -608.82367 -15.848052 -608.82367 -17.925552 L -608.82367 -30.212661 L -600.20892 -30.212661 L -600.20892 -17.925552 C -600.20892 -15.848052 -598.83191 -14.175552 -597.1225 -14.175552 C -595.41308 -14.175552 -594.03754 -15.848052 -594.03754 -17.925552 L -594.03754 -30.212661 L -585.42279 -30.212661 L -585.42279 -17.925552 C -585.42279 -15.848052 -584.04725 -14.175552 -582.33783 -14.175552 C -580.62841 -14.175552 -579.2514 -15.848052 -579.2514 -17.925552 L -579.2514 -30.212661 L -570.63666 -30.212661 L -570.63666 -17.925552 C -570.63666 -15.848052 -569.26111 -14.175552 -567.55169 -14.175552 C -565.84228 -14.175552 -564.46527 -15.848052 -564.46527 -17.925552 L -564.46527 -30.212661 L -555.85199 -30.212661 L -555.85199 -17.925552 C -555.85199 -15.848052 -554.47498 -14.175552 -552.76556 -14.175552 C -551.05614 -14.175552 -549.6806 -15.848052 -549.6806 -17.925552 L -549.6806 -30.212661 L -541.06585 -30.212661 L -541.06585 -17.925552 C -541.06585 -15.848052 -539.68885 -14.175552 -537.97943 -14.175552 C -536.27001 -14.175552 -534.89447 -15.848052 -534.89447 -17.925552 L -534.89447 -30.212661 L -526.27972 -30.212661 L -526.27972 -17.925552 C -526.27972 -15.848052 -524.90418 -14.175552 -523.19476 -14.175552 C -521.48534 -14.175552 -520.10833 -15.848052 -520.10833 -17.925552 L -520.10833 -30.212661 L -513.61761 -30.212661 L -513.61761 -36.704849 L -501.32904 -36.704849 C -499.25154 -36.704849 -497.57904 -38.080393 -497.57904 -39.78981 C -497.57904 -41.499227 -499.25154 -42.876236 -501.32904 -42.876236 L -513.61761 -42.876236 L -513.61761 -51.490982 L -501.32904 -51.490982 C -499.25154 -51.490982 -497.57904 -52.866526 -497.57904 -54.575943 C -497.57904 -56.285361 -499.25154 -57.660904 -501.32904 -57.660904 L -513.61761 -57.660904 L -513.61761 -66.275651 L -501.32904 -66.275651 C -499.25154 -66.275651 -497.57904 -67.652659 -497.57904 -69.362076 C -497.57904 -71.071494 -499.25154 -72.447037 -501.32904 -72.447037 L -513.61761 -72.447037 L -513.61761 -81.061784 L -501.32904 -81.061784 C -499.25154 -81.061784 -497.57904 -82.437327 -497.57904 -84.146745 C -497.57904 -85.856162 -499.25154 -87.233171 -501.32904 -87.233171 L -513.61761 -87.233171 L -513.61761 -95.847917 L -501.32904 -95.847917 C -499.25154 -95.847917 -497.57904 -97.223461 -497.57904 -98.932878 C -497.57904 -100.6423 -499.25154 -102.0193 -501.32904 -102.0193 L -513.61761 -102.0193 L -513.61761 -110.63259 L -501.32904 -110.63259 C -499.25154 -110.63259 -497.57904 -112.00959 -497.57904 -113.71901 C -497.57904 -115.42843 -499.25154 -116.80397 -501.32904 -116.80397 L -513.61761 -116.80397 L -513.61761 -125.41872 L -501.32904 -125.41872 C -499.25154 -125.41872 -497.57904 -126.79573 -497.57904 -128.50514 C -497.57904 -130.21456 -499.25154 -131.59011 -501.32904 -131.59011 L -513.61761 -131.59011 L -513.61761 -140.20485 L -501.32904 -140.20485 C -499.25154 -140.20485 -497.57904 -141.5804 -497.57904 -143.28981 C -497.57904 -144.99923 -499.25154 -146.37624 -501.32904 -146.37624 L -513.61761 -146.37624 L -513.61761 -152.86696 L -520.10833 -152.86696 L -520.10833 -165.15554 C -520.10833 -167.23304 -521.48534 -168.90554 -523.19476 -168.90554 C -524.90418 -168.90554 -526.27972 -167.23304 -526.27972 -165.15554 L -526.27972 -152.86696 L -534.89447 -152.86696 L -534.89447 -165.15554 C -534.89447 -167.23304 -536.27001 -168.90554 -537.97943 -168.90554 C -539.68885 -168.90554 -541.06585 -167.23304 -541.06585 -165.15554 L -541.06585 -152.86696 L -549.6806 -152.86696 L -549.6806 -165.15554 C -549.6806 -167.23304 -551.05614 -168.90554 -552.76556 -168.90554 C -554.47498 -168.90554 -555.85199 -167.23304 -555.85199 -165.15554 L -555.85199 -152.86696 L -564.46527 -152.86696 L -564.46527 -165.15554 C -564.46527 -167.23304 -565.84228 -168.90554 -567.55169 -168.90554 C -569.26111 -168.90554 -570.63666 -167.23304 -570.63666 -165.15554 L -570.63666 -152.86696 L -579.2514 -152.86696 L -579.2514 -165.15554 C -579.2514 -167.23304 -580.62841 -168.90554 -582.33783 -168.90554 C -584.04725 -168.90554 -585.42279 -167.23304 -585.42279 -165.15554 L -585.42279 -152.86696 L -594.03754 -152.86696 L -594.03754 -165.15554 C -594.03754 -167.23304 -595.41308 -168.90554 -597.1225 -168.90554 C -598.83191 -168.90554 -600.20892 -167.23304 -600.20892 -165.15554 L -600.20892 -152.86696 L -608.82367 -152.86696 L -608.82367 -165.15554 C -608.82367 -167.23304 -610.19921 -168.90554 -611.90863 -168.90554 C -613.61805 -168.90554 -614.99359 -167.23304 -614.99359 -165.15554 L -614.99359 -152.86696 L -623.60834 -152.86696 L -623.60834 -165.15554 C -623.60834 -167.23304 -624.98535 -168.90554 -626.69476 -168.90554 C -628.40418 -168.90554 -629.77972 -167.23304 -629.77972 -165.15554 L -629.77972 -152.86696 L -636.27191 -152.86696 L -636.27191 -146.37624 L -648.55902 -146.37624 C -650.63652 -146.37624 -652.30902 -144.99923 -652.30902 -143.28981 C -652.30902 -141.5804 -650.63652 -140.20485 -648.55902 -140.20485 L -636.27191 -140.20485 L -636.27191 -131.59011 L -648.55902 -131.59011 C -650.63652 -131.59011 -652.30902 -130.21456 -652.30902 -128.50514 C -652.30902 -126.79573 -650.63652 -125.41872 -648.55902 -125.41872 L -636.27191 -125.41872 L -636.27191 -116.80397 L -648.55902 -116.80397 C -650.63652 -116.80397 -652.30902 -115.42843 -652.30902 -113.71901 C -652.30902 -112.00959 -650.63652 -110.63259 -648.55902 -110.63259 L -636.27191 -110.63259 L -636.27191 -102.0193 L -648.55902 -102.0193 C -650.63652 -102.0193 -652.30902 -100.6423 -652.30902 -98.932878 C -652.30902 -97.223461 -650.63652 -95.847917 -648.55902 -95.847917 L -636.27191 -95.847917 L -636.27191 -87.233171 L -648.55902 -87.233171 C -650.63652 -87.233171 -652.30902 -85.856162 -652.30902 -84.146745 C -652.30902 -82.437327 -650.63652 -81.061784 -648.55902 -81.061784 L -636.27191 -81.061784 L -636.27191 -72.447037 L -648.55902 -72.447037 C -650.63652 -72.447037 -652.30902 -71.071494 -652.30902 -69.362076 C -652.30902 -67.652659 -650.63652 -66.275651 -648.55902 -66.275651 L -636.27191 -66.275651 L -636.27191 -57.660904 L -648.55902 -57.660904 C -650.63652 -57.660904 -652.30902 -56.285361 -652.30902 -54.575943 C -652.30902 -52.866526 -650.63652 -51.490982 -648.55902 -51.490982 L -636.27191 -51.490982 L -636.27191 -42.876236 L -648.55902 -42.876236 C -650.63652 -42.876236 -652.30902 -41.499227 -652.30902 -39.78981 z M -627.81683 -44.133072 A 5.6250001 5.6250001 0 0 1 -622.19183 -49.758072 A 5.6250001 5.6250001 0 0 1 -616.56683 -44.133072 A 5.6250001 5.6250001 0 0 1 -622.19183 -38.508072 A 5.6250001 5.6250001 0 0 1 -627.81683 -44.133072 z M -552.20892 -114.02809 L -552.20892 -116.46852 L -534.44916 -116.46852 L -534.44916 -120.14821 L -531.92816 -120.14821 L -531.92816 -109.62917 L -534.44916 -109.62917 L -534.44916 -113.30885 L -548.40912 -113.30885 C -547.84912 -112.45552 -547.36917 -111.56152 -546.96917 -110.62819 C -546.59584 -109.72152 -546.2219 -108.80176 -545.84857 -107.86843 L -547.5683 -107.18874 L -552.20892 -114.02809 z M -551.84857 -123.71071 L -551.84857 -140.35134 L -548.6889 -139.59108 C -545.0089 -136.92442 -541.15502 -134.53759 -537.12835 -132.43093 C -536.38169 -132.03093 -535.52927 -131.60399 -534.56927 -131.15065 C -533.60927 -130.72399 -532.60927 -130.31139 -531.56927 -129.91139 C -530.52927 -129.51139 -529.50204 -129.13746 -528.48871 -128.79079 C -527.47537 -128.47079 -526.52837 -128.2172 -525.64837 -128.03053 L -524.64935 -124.19118 C -525.63602 -124.32451 -526.7549 -124.61822 -528.00824 -125.07155 C -529.26157 -125.52488 -530.52804 -126.03059 -531.80804 -126.59059 C -533.08804 -127.15059 -534.30151 -127.72512 -535.44818 -128.31178 C -536.62151 -128.89845 -537.59574 -129.39128 -538.36908 -129.79128 C -540.71574 -131.07128 -542.8361 -132.35063 -544.72943 -133.63063 C -546.62276 -134.91063 -548.14282 -136.09833 -549.28949 -137.19167 C -549.28949 -137.085 -549.27514 -136.88442 -549.24847 -136.59108 L -549.24847 -135.63161 C -549.24847 -135.28494 -549.23559 -134.92389 -549.20892 -134.55055 L -549.20892 -133.51052 L -549.20892 -122.95192 L -551.84857 -123.71071 z "
       transform="matrix(0,-1,-1,0,0,0)" /></g></svg>
